<?xml version="1.0" encoding="UTF-8" standalone="no"?>
<!DOCTYPE svg PUBLIC "-//W3C//DTD SVG 1.1//EN" "http://www.w3.org/Graphics/SVG/1.1/DTD/svg11.dtd">
<svg width="100%" height="100%" viewBox="0 0 24 24" version="1.1" xmlns="http://www.w3.org/2000/svg" xmlns:xlink="http://www.w3.org/1999/xlink" xml:space="preserve" xmlns:serif="http://www.serif.com/" style="fill-rule:evenodd;clip-rule:evenodd;stroke-linejoin:round;stroke-miterlimit:1.41421;">
    <g id="Shape-1" serif:id="Shape 1" transform="matrix(1,0,0,1,-776.998,-864.996)">
        <path d="M796.085,879.023C795.755,878.692 795.226,878.692 794.897,879.023L789.841,884.106L789.841,867.849C789.841,867.379 789.463,866.999 788.996,866.999C788.529,866.999 788.151,867.379 788.151,867.849L788.151,884.106L783.103,879.023C782.773,878.692 782.244,878.692 781.915,879.023C781.585,879.354 781.585,879.886 781.915,880.218L788.405,886.744C788.57,886.91 788.783,886.993 789.003,886.993C789.223,886.993 789.436,886.91 789.601,886.744L796.092,880.218C796.408,879.893 796.408,879.354 796.085,879.023Z" style="fill:white;fill-rule:nonzero;"/>
    </g>
</svg>
