<?xml version="1.0" encoding="UTF-8" standalone="no"?>
<!DOCTYPE svg PUBLIC "-//W3C//DTD SVG 1.1//EN" "http://www.w3.org/Graphics/SVG/1.1/DTD/svg11.dtd">
<svg width="100%" height="100%" viewBox="0 0 24 24" version="1.1" xmlns="http://www.w3.org/2000/svg" xmlns:xlink="http://www.w3.org/1999/xlink" xml:space="preserve" xmlns:serif="http://www.serif.com/" style="fill-rule:evenodd;clip-rule:evenodd;stroke-linejoin:round;stroke-miterlimit:1.41421;">
    <g id="Forma-1" serif:id="Forma 1" transform="matrix(1,0,0,1,-1380.51,-3580)">
        <path d="M1389.95,3586.48C1389.95,3586.93 1389.95,3588.96 1389.95,3588.96L1388,3588.96L1388,3591.99L1389.95,3591.99L1389.95,3601.01L1393.95,3601.01L1393.95,3591.99L1396.63,3591.99C1396.63,3591.99 1396.88,3590.54 1397.01,3588.95C1396.66,3588.95 1393.96,3588.95 1393.96,3588.95C1393.96,3588.95 1393.96,3587.18 1393.96,3586.87C1393.96,3586.57 1394.4,3586.15 1394.83,3586.15C1395.26,3586.15 1396.17,3586.15 1397.01,3586.15C1397.01,3585.73 1397.01,3584.31 1397.01,3582.99C1395.89,3582.99 1394.61,3582.99 1394.05,3582.99C1389.85,3582.99 1389.95,3586.03 1389.95,3586.48Z" style="fill:rgb(203,203,203);fill-rule:nonzero;"/>
    </g>
</svg>
