<?xml version="1.0" encoding="UTF-8" standalone="no"?>
<!DOCTYPE svg PUBLIC "-//W3C//DTD SVG 1.1//EN" "http://www.w3.org/Graphics/SVG/1.1/DTD/svg11.dtd">
<svg width="100%" height="100%" viewBox="0 0 24 24" version="1.1" xmlns="http://www.w3.org/2000/svg" xmlns:xlink="http://www.w3.org/1999/xlink" xml:space="preserve" xmlns:serif="http://www.serif.com/" style="fill-rule:evenodd;clip-rule:evenodd;stroke-linejoin:round;stroke-miterlimit:1.41421;">
    <g id="Forma-1" serif:id="Forma 1" transform="matrix(1,0,0,1,-1415,-3581)">
        <path d="M1431.48,3583C1434.53,3583 1437,3585.48 1437,3588.52L1437,3597.48C1437,3600.52 1434.53,3603 1431.48,3603L1422.52,3603C1419.48,3603 1417,3600.52 1417,3597.48L1417,3588.52C1417,3585.48 1419.48,3583 1422.52,3583L1431.48,3583ZM1431.48,3584.77L1422.52,3584.77C1420.45,3584.78 1418.78,3586.45 1418.78,3588.52L1418.78,3597.48C1418.78,3599.55 1420.45,3601.22 1422.52,3601.22L1431.48,3601.22C1433.55,3601.22 1435.22,3599.55 1435.23,3597.48L1435.23,3597.48L1435.23,3588.52C1435.23,3586.45 1433.55,3584.78 1431.48,3584.77ZM1427,3587.85C1424.16,3587.85 1421.85,3590.16 1421.85,3593C1421.85,3595.84 1424.16,3598.15 1427,3598.15C1429.84,3598.15 1432.15,3595.84 1432.15,3593C1432.15,3590.16 1429.84,3587.85 1427,3587.85ZM1427,3596.38C1425.14,3596.38 1423.62,3594.86 1423.62,3593C1423.62,3591.14 1425.14,3589.62 1427,3589.62C1428.86,3589.62 1430.38,3591.14 1430.38,3593C1430.38,3594.86 1428.86,3596.38 1427,3596.38ZM1432.37,3586.34C1432.03,3586.34 1431.69,3586.48 1431.45,3586.72C1431.21,3586.96 1431.07,3587.3 1431.07,3587.64C1431.07,3587.99 1431.21,3588.32 1431.45,3588.56C1431.69,3588.81 1432.03,3588.94 1432.37,3588.94C1432.71,3588.94 1433.05,3588.81 1433.29,3588.56C1433.53,3588.32 1433.67,3587.99 1433.67,3587.64C1433.67,3587.3 1433.53,3586.96 1433.29,3586.72C1433.05,3586.48 1432.71,3586.34 1432.37,3586.34Z" style="fill:rgb(203,203,203);"/>
    </g>
</svg>
